<?xml version="1.0" encoding="utf-8"?>
<!-- Generator: Adobe Illustrator 24.0.1, SVG Export Plug-In . SVG Version: 6.00 Build 0)  -->
<svg version="1.1" id="Layer_1" xmlns="http://www.w3.org/2000/svg" xmlns:xlink="http://www.w3.org/1999/xlink" x="0px" y="0px"
	 viewBox="0 0 1280 769" style="enable-background:new 0 0 1280 769;" xml:space="preserve">
<style type="text/css">
	.st0{fill:url(#SVGID_1_);}
	.st1{fill:url(#SVGID_2_);}
	.st2{fill:url(#SVGID_3_);}
	.st3{fill:url(#SVGID_4_);}
	.st4{fill:url(#SVGID_5_);}
	.st5{fill:url(#SVGID_6_);}
	.st6{fill:url(#SVGID_7_);}
	.st7{fill:#0A1628;}
	.st8{fill:url(#SVGID_8_);}
	.st9{fill:url(#SVGID_9_);}
	.st10{fill:url(#SVGID_10_);}
	.st11{fill:url(#SVGID_11_);}
	.st12{fill:url(#SVGID_12_);}
	.st13{fill:url(#SVGID_13_);}
</style>
<g>
	<g>
		<g>
			<linearGradient id="SVGID_1_" gradientUnits="userSpaceOnUse" x1="747.413" y1="351.5912" x2="799.6198" y2="351.5912">
				<stop  offset="0" style="stop-color:#10E2D9"/>
				<stop  offset="0.5223" style="stop-color:#1B4CFF"/>
				<stop  offset="1" style="stop-color:#862AFE"/>
			</linearGradient>
			<path class="st0" d="M796.97,352.23l-7.02,7.01c-0.35,0.35-0.91,0.35-1.26,0l-5.83-5.83h-4.08l-8.18,8.19
				c-0.46,0.45-1.2,0.45-1.65,0l-9.18-9.18c-0.45-0.46-0.45-1.19,0-1.65l9.18-9.17c0.45-0.46,1.19-0.46,1.65,0l8.18,8.18h4.09
				l5.82-5.83c0.35-0.35,0.91-0.35,1.26,0l7.02,7.02C797.32,351.31,797.32,351.88,796.97,352.23z"/>
		</g>
		<g>
			<linearGradient id="SVGID_2_" gradientUnits="userSpaceOnUse" x1="805.5264" y1="335.412" x2="795.3198" y2="335.412">
				<stop  offset="0" style="stop-color:#10E2D9"/>
				<stop  offset="0.5223" style="stop-color:#1B4CFF"/>
				<stop  offset="1" style="stop-color:#862AFE"/>
			</linearGradient>
			<path class="st1" d="M798.9,339.88l4.1-4.1c0.2-0.2,0.2-0.53,0-0.74l-4.1-4.1c-0.2-0.2-0.53-0.2-0.74,0l-4.1,4.1
				c-0.2,0.2-0.2,0.53,0,0.74l4.1,4.1C798.37,340.08,798.7,340.08,798.9,339.88z"/>
		</g>
		<g>
			<linearGradient id="SVGID_3_" gradientUnits="userSpaceOnUse" x1="814.8047" y1="351.5909" x2="799.8663" y2="351.5909">
				<stop  offset="0" style="stop-color:#10E2D9"/>
				<stop  offset="0.5223" style="stop-color:#1B4CFF"/>
				<stop  offset="1" style="stop-color:#862AFE"/>
			</linearGradient>
			<path class="st2" d="M809.39,356.05l4.1-4.1c0.2-0.2,0.2-0.53,0-0.74l-4.1-4.1c-0.2-0.2-0.53-0.2-0.74,0l-4.1,4.1
				c-0.2,0.2-0.2,0.53,0,0.74l4.1,4.1C808.85,356.26,809.18,356.26,809.39,356.05z"/>
		</g>
		<g>
			<linearGradient id="SVGID_4_" gradientUnits="userSpaceOnUse" x1="816.6604" y1="384.3983" x2="804.5982" y2="384.3983">
				<stop  offset="0" style="stop-color:#10E2D9"/>
				<stop  offset="0.5223" style="stop-color:#1B4CFF"/>
				<stop  offset="1" style="stop-color:#862AFE"/>
			</linearGradient>
			<path class="st3" d="M809.39,388.86l4.1-4.1c0.2-0.2,0.2-0.53,0-0.74l-4.1-4.1c-0.2-0.2-0.53-0.2-0.74,0l-4.1,4.1
				c-0.2,0.2-0.2,0.53,0,0.74l4.1,4.1C808.85,389.06,809.18,389.06,809.39,388.86z"/>
		</g>
		<g>
			<linearGradient id="SVGID_5_" gradientUnits="userSpaceOnUse" x1="698.2996" y1="368.4441" x2="817.9082" y2="368.4441">
				<stop  offset="0" style="stop-color:#10E2D9"/>
				<stop  offset="0.5223" style="stop-color:#1B4CFF"/>
				<stop  offset="1" style="stop-color:#862AFE"/>
			</linearGradient>
			<path class="st4" d="M799.84,376.09l7.02-7.02c0.35-0.35,0.35-0.91,0-1.26l-7.02-7.02c-0.35-0.35-0.91-0.35-1.26,0l-7.02,7.02
				c-0.35,0.35-0.35,0.91,0,1.26l7.02,7.02C798.92,376.44,799.49,376.44,799.84,376.09z"/>
		</g>
		<g>
			<linearGradient id="SVGID_6_" gradientUnits="userSpaceOnUse" x1="751.4336" y1="384.3987" x2="800.0579" y2="384.3987">
				<stop  offset="0" style="stop-color:#10E2D9"/>
				<stop  offset="0.5223" style="stop-color:#1B4CFF"/>
				<stop  offset="1" style="stop-color:#862AFE"/>
			</linearGradient>
			<path class="st5" d="M795.18,384.83l-4.83,4.82c-0.23,0.24-0.62,0.24-0.86,0l-3.45-3.44h-7.26l-8.18,8.18
				c-0.46,0.46-1.2,0.46-1.65,0l-9.18-9.17c-0.45-0.46-0.45-1.2,0-1.65l9.18-9.18c0.45-0.45,1.19-0.45,1.65,0l8.18,8.19h7.26
				l3.45-3.45c0.24-0.24,0.63-0.24,0.86,0l4.83,4.83C795.42,384.2,795.42,384.6,795.18,384.83z"/>
		</g>
		<g>
			<linearGradient id="SVGID_7_" gradientUnits="userSpaceOnUse" x1="781.701" y1="325.5996" x2="538.9612" y2="325.5996">
				<stop  offset="0" style="stop-color:#10E2D9"/>
				<stop  offset="0.5223" style="stop-color:#1B4CFF"/>
				<stop  offset="1" style="stop-color:#862AFE"/>
			</linearGradient>
			<path class="st6" d="M755.53,379.33l9.07-9.07h8.38l5.82,5.83c0.35,0.34,0.92,0.34,1.26,0l7.02-7.02c0.35-0.35,0.35-0.91,0-1.26
				l-7.02-7.02c-0.34-0.35-0.91-0.35-1.26,0l-5.82,5.83h-7.33c-0.33-0.23-0.64-0.49-0.93-0.78l-0.01-0.01l-5.21-5.21l-3.09-3.09
				l-0.88-0.88c-2.79-2.79-2.79-7.34,0-10.13l9.18-9.18c1.35-1.35,3.15-2.09,5.06-2.09v-30.39c0-4-3.24-7.24-7.23-7.24h-41.71
				c-1.23,0-2.22-0.99-2.22-2.22v-45.78c0-4.08-4.45-6.6-7.94-4.5l-84.11,50.48c-1.58,0.95-2.54,2.65-2.54,4.49v46.95
				c0,1.27-1.39,2.05-2.47,1.4l-86.71-52.04c-2.39-1.43-5.42,0.29-5.42,3.06v49.01c0,1.07-0.87,1.95-1.95,1.95h-42.33
				c-3.8,0-6.88,3.08-6.88,6.88v45.91h45.63c3.96,0,7.17-3.21,7.17-7.16v-40c0-1.52,1.65-2.45,2.95-1.67l84.25,50.56
				c2.53,1.52,5.76-0.31,5.76-3.26v-39.85c0-3.87,2.03-7.45,5.34-9.44l85.9-51.55c0.76-0.45,1.72,0.09,1.72,0.97v43.58h-34.31
				c-2.49,0-4.52,2.02-4.52,4.52v22.37c0,2.49,2.03,4.51,4.52,4.51h34.31v19.19c0,3.99,3.24,7.23,7.24,7.23h50.06l3.45,3.45
				c0.24,0.23,0.63,0.23,0.86,0l4.83-4.83c0.24-0.24,0.24-0.63,0-0.87l-4.83-4.82c-0.23-0.24-0.62-0.24-0.86,0l-3.45,3.44h-8.4
				c-0.42-0.26-0.81-0.58-1.17-0.94l-9.18-9.18c-2.66-2.66-2.78-6.91-0.37-9.72C755.27,379.6,755.4,379.46,755.53,379.33z
				 M753.38,373.7l-4.82-4.83c-0.24-0.24-0.24-0.62,0-0.86l4.82-4.83c0.24-0.24,0.63-0.24,0.87,0l4.83,4.83
				c0.24,0.24,0.24,0.62,0,0.86l-1.1,1.1l-3.73,3.73C754.01,373.94,753.62,373.94,753.38,373.7z"/>
		</g>
	</g>
	<g>
		<g>
			<polygon class="st7" points="375.08,516.18 375.08,523.13 382.02,523.13 382.02,519.65 382.02,516.18 378.56,516.18 			"/>
			<rect x="476.4" y="516.07" class="st7" width="7.04" height="7.05"/>
			<path class="st7" d="M475.19,453c-3.52,0-5.13,1.01-6.84,3.22l-39.04,51.42l-38.74-51.42c-1.71-2.31-3.62-3.22-7.24-3.22
				c-4.73,0-8.25,1.91-8.25,6.24v43.06v6.94h6.94v-6.94h6.94v-24.35l33.41,43.77c1.61,2.01,3.72,2.92,6.74,2.92
				c3.02,0,5.13-0.91,6.74-2.92l33.5-43.77v24.03h7.05v7.05h7.04v-7.05v-42.74C483.44,454.9,479.82,453,475.19,453z"/>
			<path class="st7" d="M597.85,479.25v-5.33h5.32v-5.33h-5.32V453.2h-15.3v58.3c0,3.21,1.31,6.12,3.4,8.21
				c2.1,2.1,5.01,3.41,8.22,3.41h18.97v-10.26h-15.29V479.25z M597.84,473.93h-5.32v-5.33h5.32V473.93z"/>
			<rect x="603.17" y="473.93" class="st7" width="5.33" height="5.33"/>
			<rect x="608.51" y="471.26" class="st7" width="2.66" height="2.66"/>
			<rect x="511.37" y="473.93" class="st7" width="2.66" height="2.66"/>
			<rect x="514.04" y="468.6" class="st7" width="5.33" height="5.33"/>
			<rect x="519.36" y="473.93" class="st7" width="5.33" height="5.33"/>
			<path class="st7" d="M543.81,468.6h-19.12v5.33h5.33v5.33h13.79c6.64,0,9.26,1.82,9.26,8.76v15.09c0,8.15-3.02,9.76-10.07,9.76
				h-29.17c-2.84,0-5.13-2.29-5.13-5.13v-3.72c0-4.33,2.1-5.54,5.63-5.54h28.83v-9.25h-30.44c-15.09,0-18.92,5.23-18.92,14.38v5.13
				c0,8.86,4.24,14.39,19.92,14.39h29.49c19.31,0,24.85-5.33,24.85-21.12v-13.29C568.06,474.82,561.22,468.6,543.81,468.6z"/>
			<rect x="633.62" y="473.93" class="st7" width="2.66" height="2.66"/>
			<rect x="636.29" y="468.6" class="st7" width="5.33" height="5.33"/>
			<rect x="641.61" y="473.93" class="st7" width="5.33" height="5.33"/>
			<path class="st7" d="M666.06,468.6h-19.12v5.33h5.33v5.33h13.79c6.64,0,9.26,1.82,9.26,8.76v15.09c0,8.15-3.02,9.76-10.07,9.76
				h-29.17c-2.84,0-5.13-2.29-5.13-5.13v-3.72c0-4.33,2.1-5.54,5.63-5.54h28.83v-9.25h-30.44c-15.09,0-18.92,5.23-18.92,14.38v5.13
				c0,8.86,4.24,14.39,19.92,14.39h29.49c19.31,0,24.85-5.33,24.85-21.12v-13.29C690.31,474.82,683.47,468.6,666.06,468.6z"/>
			<rect x="382.02" y="509.24" class="st7" width="6.94" height="6.95"/>
			<rect x="469.36" y="509.02" class="st7" width="7.04" height="7.05"/>
			<path class="st7" d="M727.24,468.6h-0.51c-18.41,0-25.56,6.64-25.56,22.94v31.59h15v-31.49c0-8.65,2.61-10.87,10.96-10.87h0.11
				h4.62v-6.09h-4.62V468.6z"/>
			<rect x="731.86" y="468.6" class="st7" width="4.63" height="6.08"/>
		</g>
		<g>
			<linearGradient id="SVGID_8_" gradientUnits="userSpaceOnUse" x1="973.216" y1="519.175" x2="756.8245" y2="519.175">
				<stop  offset="0" style="stop-color:#10E2D9"/>
				<stop  offset="0.5223" style="stop-color:#1B4CFF"/>
				<stop  offset="1" style="stop-color:#862AFE"/>
			</linearGradient>
			<polygon class="st8" points="780.27,523.13 789.06,523.13 793.94,515.23 793.94,515.22 785.22,515.22 			"/>
			<linearGradient id="SVGID_9_" gradientUnits="userSpaceOnUse" x1="973.216" y1="488.065" x2="756.8245" y2="488.065">
				<stop  offset="0" style="stop-color:#10E2D9"/>
				<stop  offset="0.5223" style="stop-color:#1B4CFF"/>
				<stop  offset="1" style="stop-color:#862AFE"/>
			</linearGradient>
			<path class="st9" d="M831.67,453c-6.24,0-9.16,2.81-11.58,6.73l-29.9,47.59h8.64l-4.89,7.9h8.8l4.89-7.9l7.14-11.76l16.6-27.07
				l16.59,27.07h-25.53l-7.14,11.76h39.82l9.97,15.8h17.71l-39.65-63.39C840.72,455.81,837.8,453,831.67,453z"/>
			<linearGradient id="SVGID_10_" gradientUnits="userSpaceOnUse" x1="973.216" y1="458.33" x2="756.8245" y2="458.33">
				<stop  offset="0" style="stop-color:#10E2D9"/>
				<stop  offset="0.5223" style="stop-color:#1B4CFF"/>
				<stop  offset="1" style="stop-color:#862AFE"/>
			</linearGradient>
			<rect x="897.28" y="454.5" class="st10" width="7.64" height="7.65"/>
			<linearGradient id="SVGID_11_" gradientUnits="userSpaceOnUse" x1="973.216" y1="452.4602" x2="756.8245" y2="452.4602">
				<stop  offset="0" style="stop-color:#10E2D9"/>
				<stop  offset="0.5223" style="stop-color:#1B4CFF"/>
				<stop  offset="1" style="stop-color:#862AFE"/>
			</linearGradient>
			<rect x="893.19" y="450.42" class="st11" width="4.08" height="4.09"/>
			<linearGradient id="SVGID_12_" gradientUnits="userSpaceOnUse" x1="973.216" y1="492.64" x2="756.8245" y2="492.64">
				<stop  offset="0" style="stop-color:#10E2D9"/>
				<stop  offset="0.5223" style="stop-color:#1B4CFF"/>
				<stop  offset="1" style="stop-color:#862AFE"/>
			</linearGradient>
			<polygon class="st12" points="889.63,462.15 889.63,469.8 889.63,523.13 904.92,523.13 904.92,469.8 897.28,469.8 897.28,462.15 
							"/>
		</g>
	</g>
	<linearGradient id="SVGID_13_" gradientUnits="userSpaceOnUse" x1="822.7732" y1="264.8626" x2="761.2131" y2="264.8626">
		<stop  offset="0" style="stop-color:#10E2D9"/>
		<stop  offset="0.3836" style="stop-color:#1B4CFF"/>
		<stop  offset="0.6369" style="stop-color:#453EFF"/>
		<stop  offset="0.8613" style="stop-color:#862AFE"/>
	</linearGradient>
	<path class="st13" d="M767.17,244.37h-32.6c-1.44,0-2.6,1.16-2.6,2.6v35.79c0,1.44,1.16,2.6,2.6,2.6h32.6c1.44,0,2.6-1.16,2.6-2.6
		v-35.79C769.77,245.53,768.6,244.37,767.17,244.37z"/>
</g>
</svg>
